<svg width="598" height="657" viewBox="0 0 598 657" fill="none" xmlns="http://www.w3.org/2000/svg">
<g opacity="0.25">
<g opacity="0.2443">
<path opacity="0.2443" d="M430.598 383.716L373.736 428.365L427.84 442.942L430.598 383.716ZM376.362 427.84L429.416 386.212L426.789 441.497L376.362 427.84Z" fill="#0E243A"/>
</g>
<g opacity="0.5038">
<path opacity="0.5038" d="M510.834 526.461L520.552 617.991L521.34 617.203L595.404 549.836L510.834 526.461ZM521.471 615.627L512.147 528.037L593.172 550.493L521.471 615.627Z" fill="#0E243A"/>
</g>
<g opacity="0.8777">
<path opacity="0.8777" d="M594.879 549.048L520.026 616.94L599.869 656.336V608.011L594.879 549.048ZM522.127 616.678L593.959 551.412L598.818 608.142V654.498L522.127 616.678Z" fill="#0E243A"/>
</g>
<g opacity="0.5761">
<path opacity="0.5761" d="M164.806 422.325L163.756 422.85L182.534 460.407L192.383 463.69L164.806 422.325ZM183.322 459.488L168.877 430.598L189.626 461.589L183.322 459.488Z" fill="#0E243A"/>
</g>
<g opacity="0.1811">
<path opacity="0.1811" d="M131.845 473.014L64.478 480.499L100.854 525.411L131.845 473.014ZM66.7105 481.287L129.613 474.327L100.722 523.31L66.7105 481.287Z" fill="#0E243A"/>
</g>
<g opacity="0.6975">
<path opacity="0.6975" d="M402.495 110.309L401.839 110.834L358.897 151.018L415.89 144.583L402.495 110.309ZM362.311 149.574L402.101 112.279L414.445 143.664L362.311 149.574Z" fill="#0E243A"/>
</g>
<g opacity="0.054651">
<path opacity="0.054651" d="M427.708 441.366L405.515 452.134L405.778 452.66L450.295 545.24L427.708 441.366ZM407.091 452.66L426.921 443.073L447.012 535.785L407.091 452.66Z" fill="#0E243A"/>
</g>
<g opacity="0.341">
<path opacity="0.341" d="M273.539 533.159L315.167 609.455L321.865 558.109L321.471 557.978L273.539 533.159ZM314.511 605.778L276.297 535.916L320.683 558.766L314.511 605.778Z" fill="#0E243A"/>
</g>
<g opacity="0.4395">
<path opacity="0.4395" d="M315.299 606.829L256.73 633.749L327.774 646.094L315.299 606.829ZM260.538 633.224L314.511 608.405L326.067 644.518L260.538 633.224Z" fill="#0E243A"/>
</g>
<g opacity="0.8687">
<path opacity="0.8687" d="M101.248 523.572L47.2751 541.038L47.6691 541.694L118.188 640.447L101.248 523.572ZM49.1136 541.563L100.328 525.017L116.349 635.851L49.1136 541.563Z" fill="#0E243A"/>
</g>
<g opacity="0.6378">
<path opacity="0.6378" d="M400.394 108.076L415.102 145.371L421.799 134.209L400.394 108.076ZM415.233 142.876L404.202 114.642L420.355 134.472L415.233 142.876Z" fill="#0E243A"/>
</g>
<g opacity="0.6534">
<path opacity="0.6534" d="M557.19 105.581L461.983 127.643L569.928 157.059L557.19 105.581ZM466.71 127.775L556.402 107.026L568.483 155.352L466.71 127.775Z" fill="#0E243A"/>
</g>
<g opacity="0.4075">
<path opacity="0.4075" d="M444.517 130.27L420.617 133.815L413.657 145.503L444.517 130.27ZM421.405 134.866L437.426 132.502L416.678 142.745L421.405 134.866Z" fill="#0E243A"/>
</g>
<g opacity="0.1929">
<path opacity="0.1929" d="M385.292 253.447L309.915 314.248L390.939 333.684L385.292 253.447ZM312.41 313.592L384.373 255.68L389.757 332.108L312.41 313.592Z" fill="#0E243A"/>
</g>
<g opacity="0.1666">
<path opacity="0.1666" d="M587.262 230.467L599.869 269.469V235.719L587.262 230.467ZM598.687 262.115L589.101 232.436L598.687 236.376V262.115Z" fill="#0E243A"/>
</g>
<g opacity="0.3403">
<path opacity="0.3403" d="M258.963 632.83L180.302 637.426L217.334 656.599H269.205L258.963 632.83ZM184.636 638.346L258.306 634.012L267.498 655.417H217.466L184.636 638.346Z" fill="#0E243A"/>
</g>
<g opacity="0.9176">
<path opacity="0.9176" d="M181.353 458.832L209.586 495.601L210.506 494.945L191.464 462.115L181.353 458.832ZM204.99 487.722L184.504 461.064L190.545 463.034L204.99 487.722Z" fill="#0E243A"/>
</g>
<g opacity="0.1984">
<path opacity="0.1984" d="M209.192 494.025L220.617 547.735L276.559 534.734L209.192 494.025ZM221.536 546.422L210.9 496.389L273.539 534.34L221.536 546.422Z" fill="#0E243A"/>
</g>
<g opacity="0.2669">
<path opacity="0.2669" d="M275.903 532.633L219.829 595.404L259.094 634.537L275.903 532.633ZM221.405 595.404L274.064 536.441L258.306 632.305L221.405 595.404Z" fill="#0E243A"/>
</g>
<g opacity="0.7806">
<path opacity="0.7806" d="M447.8 538.674L462.114 624.295L522.259 617.203L521.471 616.415L447.8 538.674ZM463.033 623.113L449.507 542.22L519.895 616.284L463.033 623.113Z" fill="#0E243A"/>
</g>
<g opacity="0.9353">
<path opacity="0.9353" d="M462.508 621.931L452.134 656.599H475.772L462.508 621.931ZM453.71 655.417L462.64 625.476L474.064 655.417H453.71Z" fill="#0E243A"/>
</g>
<g opacity="0.4956">
<path opacity="0.4956" d="M561.917 105.713L469.206 106.107L463.559 128.562L561.917 105.713ZM470.125 107.157L551.674 106.894L465.135 126.986L470.125 107.157Z" fill="#0E243A"/>
</g>
<g opacity="0.6271">
<path opacity="0.6271" d="M139.987 365.201L164.018 423.507L207.091 391.859L139.987 365.201ZM164.544 421.668L142.088 367.17L204.727 392.121L164.544 421.668Z" fill="#0E243A"/>
</g>
<g opacity="0.7557">
<path opacity="0.7557" d="M205.778 390.283L190.414 463.165L241.628 462.509L205.778 390.283ZM191.727 461.983L206.172 393.828L239.658 461.458L191.727 461.983Z" fill="#0E243A"/>
</g>
<g opacity="0.3556">
<path opacity="0.3556" d="M406.303 450.952L355.614 558.503L449.508 540.906L406.303 450.952ZM357.584 556.927L406.303 453.579L447.8 540.118L357.584 556.927Z" fill="#0E243A"/>
</g>
<g opacity="0.058722">
<path opacity="0.058722" d="M302.429 444.912L320.946 559.029L357.584 558.241L302.429 444.912ZM321.865 557.847L304.793 452.397L355.745 557.059L321.865 557.847Z" fill="#0E243A"/>
</g>
<g opacity="0.5999">
<path opacity="0.5999" d="M390.545 331.451L357.321 384.373L396.98 360.736L390.545 331.451ZM360.867 380.959L390.02 334.472L395.666 360.342L360.867 380.959Z" fill="#0E243A"/>
</g>
<g opacity="0.7881">
<path opacity="0.7881" d="M391.464 332.108L330.926 344.977L359.028 383.717L391.464 332.108ZM332.896 345.765L389.1 333.815L359.028 381.747L332.896 345.765Z" fill="#0E243A"/>
</g>
<g opacity="0.397">
<path opacity="0.397" d="M400.394 357.453L358.503 382.272L357.452 398.818L400.394 357.453ZM359.685 382.929L392.515 363.493L358.897 395.929L359.685 382.929Z" fill="#0E243A"/>
</g>
<g opacity="0.1352">
<path opacity="0.1352" d="M294.419 359.029L358.766 398.425L359.685 382.272L294.419 359.029ZM357.715 396.455L304.399 363.756L358.503 383.06L357.715 396.455Z" fill="#0E243A"/>
</g>
<g opacity="0.302">
<path opacity="0.302" d="M599.869 198.819L594.091 199.738L599.869 207.617V198.819ZM596.192 200.526L598.687 200.132V204.071L596.192 200.526Z" fill="#0E243A"/>
</g>
<g opacity="0.5835">
<path opacity="0.5835" d="M514.511 0.0001297L499.015 59.3567L537.361 37.1636L514.511 0.0001297ZM500.854 56.9929L514.905 2.88918L535.785 36.901L500.854 56.9929Z" fill="#0E243A"/>
</g>
<g opacity="0.7245">
<path opacity="0.7245" d="M416.152 143.401L359.422 149.836L394.222 185.949L416.152 143.401ZM361.917 150.755L414.183 144.846L393.959 184.111L361.917 150.755Z" fill="#0E243A"/>
</g>
<g opacity="0.6437">
<path opacity="0.6437" d="M359.553 148.26L368.483 180.302L395.798 185.949L359.553 148.26ZM369.402 179.383L361.917 152.331L392.515 184.111L369.402 179.383Z" fill="#0E243A"/>
</g>
<g opacity="0.593">
<path opacity="0.593" d="M599.869 433.75L584.898 436.639L599.869 459.62V433.75ZM586.868 437.427L598.687 435.194V455.811L586.868 437.427Z" fill="#0E243A"/>
</g>
<g opacity="0.4081">
<path opacity="0.4081" d="M589.888 230.598L479.317 252.134L530.926 289.56L531.32 289.166L589.888 230.598ZM482.075 252.791L586.343 232.436L530.663 288.116L482.075 252.791Z" fill="#0E243A"/>
</g>
<g opacity="0.9412">
<path opacity="0.9412" d="M527.38 349.442L503.349 418.254L593.04 390.545L527.38 349.442ZM505.187 416.415L528.037 351.149L590.282 390.151L505.187 416.415Z" fill="#0E243A"/>
</g>
<g opacity="0.2546">
<path opacity="0.2546" d="M130.663 472.489L99.9343 524.623L179.251 552.856L130.663 472.489ZM101.641 524.097L130.663 474.853L176.625 550.887L101.641 524.097Z" fill="#0E243A"/>
</g>
<g opacity="0.5939">
<path opacity="0.5939" d="M221.93 546.422L176.756 551.412L208.798 584.636L221.93 546.422ZM179.251 552.331L220.223 547.866L208.273 582.535L179.251 552.331Z" fill="#0E243A"/>
</g>
<g opacity="0.7674">
<path opacity="0.7674" d="M18.91 635.588L0 656.599H13.2633L18.91 635.588ZM2.6264 655.417L16.5463 639.922L12.4754 655.417H2.6264Z" fill="#0E243A"/>
</g>
<g opacity="0.2255">
<path opacity="0.2255" d="M465.003 127.118L440.053 130.926L457.912 166.12L465.003 127.118ZM441.891 131.845L463.69 128.562L457.518 162.706L441.891 131.845Z" fill="#0E243A"/>
</g>
<g opacity="0.1251">
<path opacity="0.1251" d="M441.234 130.532L413.789 144.058L458.963 165.463L441.234 130.532ZM416.546 144.058L440.709 132.108L456.336 163.099L416.546 144.058Z" fill="#0E243A"/>
</g>
<g opacity="0.2913">
<path opacity="0.2913" d="M414.97 143.401L393.04 186.08L459.357 164.544L414.97 143.401ZM395.272 184.111L415.496 144.977L456.205 164.281L395.272 184.111Z" fill="#0E243A"/>
</g>
<g opacity="0.7893">
<path opacity="0.7893" d="M457.387 160.736L450.295 264.741L481.418 252.791L457.387 160.736ZM451.477 263.034L458.043 167.958L479.974 252.134L451.477 263.034Z" fill="#0E243A"/>
</g>
<g opacity="0.7612">
<path opacity="0.7612" d="M544.846 44.649L544.714 45.8309L600 57.781V50.9524L544.846 44.649ZM598.687 56.3365L556.008 47.1441L598.687 52.0029V56.3365Z" fill="#0E243A"/>
</g>
<g opacity="0.3186">
<path opacity="0.3186" d="M599.869 150.624L568.221 155.745L595.404 201.707L599.737 176.757L599.869 150.624ZM570.059 156.665L598.687 152.068V176.757L594.879 198.556L570.059 156.665Z" fill="#0E243A"/>
</g>
<g opacity="0.769">
<path opacity="0.769" d="M500.985 57.5182L443.335 61.0639L469.468 107.682L500.985 57.5182ZM445.305 62.2457L498.884 58.9627L469.731 105.581L445.305 62.2457Z" fill="#0E243A"/>
</g>
<g opacity="0.7914">
<path opacity="0.7914" d="M443.992 61.3265L399.081 109.783L402.364 112.147L444.78 62.1144L443.992 61.3265ZM400.788 109.521L426.658 81.5497L402.101 110.44L400.788 109.521Z" fill="#0E243A"/>
</g>
<g opacity="0.7235">
<path opacity="0.7235" d="M358.109 165.988L337.492 188.575L369.928 180.302L358.109 165.988ZM341.037 186.474L358.109 167.827L367.958 179.646L341.037 186.474Z" fill="#0E243A"/>
</g>
<g opacity="0.1424">
<path opacity="0.1424" d="M561.786 499.278L594.222 551.149L599.737 543.796V528.825L561.786 499.278ZM594.353 549.18L566.251 504.268L598.687 529.613V543.533L594.353 549.18Z" fill="#0E243A"/>
</g>
<g opacity="0.3504">
<path opacity="0.3504" d="M164.544 421.274L129.219 474.984L174.918 455.154L164.544 421.274ZM132.239 472.357L164.15 423.9L173.474 454.366L132.239 472.357Z" fill="#0E243A"/>
</g>
<g opacity="0.5955">
<path opacity="0.5955" d="M174.13 454.104L130.401 473.014L130.794 474.065L184.373 460.013L174.13 454.104ZM137.886 471.176L174.13 455.417L181.484 459.751L137.886 471.176Z" fill="#0E243A"/>
</g>
<g opacity="0.8014">
<path opacity="0.8014" d="M359.554 557.059L320.158 557.847L330.794 569.665L359.554 557.059ZM322.653 559.028L353.775 558.372L331.057 568.352L322.653 559.028Z" fill="#0E243A"/>
</g>
<g opacity="0.38">
<path opacity="0.38" d="M320.945 557.19L313.723 611.95L331.451 569.009L320.945 557.19ZM316.087 603.283L321.865 559.685L330.269 569.009L316.087 603.283Z" fill="#0E243A"/>
</g>
<g opacity="0.9285">
<path opacity="0.9285" d="M389.101 329.875L396.455 363.231L399.869 346.29L389.101 329.875ZM396.323 357.715L391.464 335.916L398.424 346.684L396.323 357.715Z" fill="#0E243A"/>
</g>
<g opacity="0.9356">
<path opacity="0.9356" d="M450.427 263.559L389.626 332.896L399.212 347.604L451.346 264.216L450.427 263.559ZM391.07 332.896L446.619 269.6L399.212 345.503L391.07 332.896Z" fill="#0E243A"/>
</g>
</g>
</svg>
