<svg width="501" height="532" viewBox="0 0 501 532" fill="none" xmlns="http://www.w3.org/2000/svg">
<g opacity="0.25">
<g opacity="0.2443">
<path opacity="0.2443" d="M141.451 221.099L188.93 184.923L143.754 173.113L141.451 221.099ZM186.737 185.349L142.438 219.078L144.631 174.283L186.737 185.349Z" fill="#0E243A"/>
</g>
<g opacity="0.5038">
<path opacity="0.5038" d="M74.4536 105.442L66.3394 31.2816L65.6815 31.92L3.83773 86.5032L74.4536 105.442ZM65.5718 33.1968L73.3571 104.166L5.70179 85.9712L65.5718 33.1968Z" fill="#0E243A"/>
</g>
<g opacity="0.8777">
<path opacity="0.8777" d="M4.27642 87.1417L66.7781 32.1329L0.109657 0.21286V39.3681L4.27642 87.1417ZM65.0236 32.3457L5.04399 85.2265L0.986855 39.2617V1.70246L65.0236 32.3457Z" fill="#0E243A"/>
</g>
<g opacity="0.5761">
<path opacity="0.5761" d="M363.387 189.818L364.264 189.392L348.584 158.962L340.36 156.302L363.387 189.818ZM347.926 159.706L359.987 183.114L342.662 158.004L347.926 159.706Z" fill="#0E243A"/>
</g>
<g opacity="0.1811">
<path opacity="0.1811" d="M390.909 148.747L447.161 142.682L416.787 106.294L390.909 148.747ZM445.297 142.044L392.773 147.683L416.897 107.996L445.297 142.044Z" fill="#0E243A"/>
</g>
<g opacity="0.6975">
<path opacity="0.6975" d="M164.917 442.624L165.465 442.198L201.321 409.64L153.732 414.853L164.917 442.624ZM198.47 410.81L165.246 441.028L154.938 415.598L198.47 410.81Z" fill="#0E243A"/>
</g>
<g opacity="0.054651">
<path opacity="0.054651" d="M143.863 174.39L162.395 165.665L162.175 165.239L125.003 90.2272L143.863 174.39ZM161.079 165.239L144.521 173.006L127.745 97.888L161.079 165.239Z" fill="#0E243A"/>
</g>
<g opacity="0.341">
<path opacity="0.341" d="M272.595 100.016L237.835 38.1976L232.243 79.8L232.572 79.9064L272.595 100.016ZM238.383 41.1768L270.292 97.7816L233.23 79.268L238.383 41.1768Z" fill="#0E243A"/>
</g>
<g opacity="0.4395">
<path opacity="0.4395" d="M237.726 40.3256L286.63 18.5136L227.309 8.51202L237.726 40.3256ZM283.45 18.9392L238.383 39.0488L228.734 9.78882L283.45 18.9392Z" fill="#0E243A"/>
</g>
<g opacity="0.8687">
<path opacity="0.8687" d="M416.458 107.783L461.525 93.632L461.196 93.1L402.313 13.0872L416.458 107.783ZM459.99 93.2064L417.226 106.613L403.848 16.8112L459.99 93.2064Z" fill="#0E243A"/>
</g>
<g opacity="0.6378">
<path opacity="0.6378" d="M166.671 444.433L154.39 414.215L148.798 423.259L166.671 444.433ZM154.28 416.237L163.491 439.113L150.004 423.046L154.28 416.237Z" fill="#0E243A"/>
</g>
<g opacity="0.6534">
<path opacity="0.6534" d="M35.7466 446.454L115.244 428.579L25.1103 404.746L35.7466 446.454ZM111.297 428.473L36.4044 445.284L26.3165 406.129L111.297 428.473Z" fill="#0E243A"/>
</g>
<g opacity="0.4075">
<path opacity="0.4075" d="M129.828 426.451L149.785 423.578L155.596 414.109L129.828 426.451ZM149.127 422.727L135.749 424.642L153.074 416.343L149.127 422.727Z" fill="#0E243A"/>
</g>
<g opacity="0.1929">
<path opacity="0.1929" d="M179.281 326.648L242.221 277.385L174.566 261.638L179.281 326.648ZM240.138 277.917L180.048 324.839L175.553 262.914L240.138 277.917Z" fill="#0E243A"/>
</g>
<g opacity="0.1666">
<path opacity="0.1666" d="M10.6362 345.268L0.109604 313.667L0.109604 341.012L10.6362 345.268ZM1.09647 319.626L9.10105 343.672L1.09647 340.48L1.09647 319.626Z" fill="#0E243A"/>
</g>
<g opacity="0.3403">
<path opacity="0.3403" d="M284.766 19.2584L350.448 15.5344L319.526 0L276.213 0L284.766 19.2584ZM346.829 14.7896L285.315 18.3008L277.639 0.9576L319.416 0.9576L346.829 14.7896Z" fill="#0E243A"/>
</g>
<g opacity="0.9176">
<path opacity="0.9176" d="M349.571 160.238L325.995 130.446L325.228 130.978L341.127 157.578L349.571 160.238ZM329.833 136.83L346.939 158.429L341.895 156.833L329.833 136.83Z" fill="#0E243A"/>
</g>
<g opacity="0.1984">
<path opacity="0.1984" d="M326.324 131.723L316.785 88.2056L270.073 98.7392L326.324 131.723ZM316.017 89.2696L324.899 129.808L272.595 99.0584L316.017 89.2696Z" fill="#0E243A"/>
</g>
<g opacity="0.2669">
<path opacity="0.2669" d="M270.621 100.442L317.443 49.5824L284.657 17.8752L270.621 100.442ZM316.127 49.5824L272.156 97.356L285.314 19.684L316.127 49.5824Z" fill="#0E243A"/>
</g>
<g opacity="0.7806">
<path opacity="0.7806" d="M127.087 95.5471L115.135 26.1743L64.914 31.9199L65.5719 32.5583L127.087 95.5471ZM114.367 27.1319L125.661 92.6743L66.8877 32.6647L114.367 27.1319Z" fill="#0E243A"/>
</g>
<g opacity="0.9353">
<path opacity="0.9353" d="M114.806 28.0896L123.468 0L103.731 0L114.806 28.0896ZM122.152 0.9576L114.696 25.2168L105.156 0.9576L122.152 0.9576Z" fill="#0E243A"/>
</g>
<g opacity="0.4956">
<path opacity="0.4956" d="M31.799 446.348L109.213 446.029L113.928 427.834L31.799 446.348ZM108.446 445.178L40.3518 445.39L112.613 429.111L108.446 445.178Z" fill="#0E243A"/>
</g>
<g opacity="0.6271">
<path opacity="0.6271" d="M384.111 236.102L364.045 188.86L328.079 214.502L384.111 236.102ZM363.606 190.35L382.357 234.506L330.053 214.29L363.606 190.35Z" fill="#0E243A"/>
</g>
<g opacity="0.7557">
<path opacity="0.7557" d="M329.175 215.779L342.005 156.727L299.24 157.259L329.175 215.779ZM340.908 157.685L328.846 212.906L300.885 158.11L340.908 157.685Z" fill="#0E243A"/>
</g>
<g opacity="0.3556">
<path opacity="0.3556" d="M161.737 166.622L204.062 79.4808L125.661 93.7384L161.737 166.622ZM202.418 80.7576L161.737 164.494L127.087 94.3768L202.418 80.7576Z" fill="#0E243A"/>
</g>
<g opacity="0.058722">
<path opacity="0.058722" d="M248.471 171.517L233.011 79.0552L202.418 79.6936L248.471 171.517ZM232.243 80.0128L246.498 165.452L203.953 80.6512L232.243 80.0128Z" fill="#0E243A"/>
</g>
<g opacity="0.5999">
<path opacity="0.5999" d="M174.895 263.446L202.637 220.567L169.522 239.719L174.895 263.446ZM199.676 223.334L175.334 260.999L170.619 240.038L199.676 223.334Z" fill="#0E243A"/>
</g>
<g opacity="0.7881">
<path opacity="0.7881" d="M174.127 262.914L224.677 252.487L201.211 221.099L174.127 262.914ZM223.032 251.849L176.101 261.531L201.211 222.695L223.032 251.849Z" fill="#0E243A"/>
</g>
<g opacity="0.397">
<path opacity="0.397" d="M166.671 242.379L201.65 222.27L202.527 208.863L166.671 242.379ZM200.663 221.738L173.25 237.485L201.321 211.204L200.663 221.738Z" fill="#0E243A"/>
</g>
<g opacity="0.1352">
<path opacity="0.1352" d="M255.16 241.102L201.431 209.182L200.663 222.27L255.16 241.102ZM202.308 210.778L246.827 237.272L201.65 221.631L202.308 210.778Z" fill="#0E243A"/>
</g>
<g opacity="0.302">
<path opacity="0.302" d="M0.109644 370.91L4.93433 370.166L0.109644 363.782L0.109644 370.91ZM3.17989 369.527L1.09651 369.846L1.09651 366.654L3.17989 369.527Z" fill="#0E243A"/>
</g>
<g opacity="0.5835">
<path opacity="0.5835" d="M71.3835 532L84.3224 483.907L52.304 501.889L71.3835 532ZM82.7873 485.822L71.0545 529.659L53.6198 502.102L82.7873 485.822Z" fill="#0E243A"/>
</g>
<g opacity="0.7245">
<path opacity="0.7245" d="M153.513 415.811L200.882 410.598L171.825 381.338L153.513 415.811ZM198.799 409.853L155.158 414.641L172.044 382.827L198.799 409.853Z" fill="#0E243A"/>
</g>
<g opacity="0.6437">
<path opacity="0.6437" d="M200.773 411.874L193.316 385.913L170.509 381.338L200.773 411.874ZM192.549 386.658L198.799 408.576L173.25 382.827L192.549 386.658Z" fill="#0E243A"/>
</g>
<g opacity="0.593">
<path opacity="0.593" d="M0.109663 180.561L12.61 178.22L0.109663 159.6L0.109663 180.561ZM10.9652 177.582L1.09652 179.39L1.09652 162.686L10.9652 177.582Z" fill="#0E243A"/>
</g>
<g opacity="0.4081">
<path opacity="0.4081" d="M8.4432 345.162L100.77 327.712L57.677 297.388L57.348 297.707L8.4432 345.162ZM98.4675 327.18L11.4038 343.672L57.8963 298.558L98.4675 327.18Z" fill="#0E243A"/>
</g>
<g opacity="0.9412">
<path opacity="0.9412" d="M60.6375 248.87L80.7039 193.116L5.81152 215.566L60.6375 248.87ZM79.1687 194.606L60.0893 247.486L8.11421 215.886L79.1687 194.606Z" fill="#0E243A"/>
</g>
<g opacity="0.2546">
<path opacity="0.2546" d="M391.896 149.173L417.555 106.932L351.325 84.056L391.896 149.173ZM416.129 107.358L391.896 147.258L353.518 85.652L416.129 107.358Z" fill="#0E243A"/>
</g>
<g opacity="0.5939">
<path opacity="0.5939" d="M315.688 89.2696L353.408 85.2264L326.653 58.3072L315.688 89.2696ZM351.325 84.4816L317.114 88.0992L327.092 60.0096L351.325 84.4816Z" fill="#0E243A"/>
</g>
<g opacity="0.7674">
<path opacity="0.7674" d="M485.21 17.024L501 0L489.925 0L485.21 17.024ZM498.807 0.9576L487.184 13.5128L490.583 0.9576L498.807 0.9576Z" fill="#0E243A"/>
</g>
<g opacity="0.2255">
<path opacity="0.2255" d="M112.722 429.005L133.556 425.919L118.643 397.404L112.722 429.005ZM132.021 425.174L113.819 427.834L118.972 400.17L132.021 425.174Z" fill="#0E243A"/>
</g>
<g opacity="0.1251">
<path opacity="0.1251" d="M132.569 426.238L155.487 415.279L117.766 397.936L132.569 426.238ZM153.184 415.279L133.008 424.962L119.959 399.851L153.184 415.279Z" fill="#0E243A"/>
</g>
<g opacity="0.2913">
<path opacity="0.2913" d="M154.5 415.811L172.812 381.231L117.437 398.681L154.5 415.811ZM170.947 382.827L154.061 414.534L120.069 398.894L170.947 382.827Z" fill="#0E243A"/>
</g>
<g opacity="0.7893">
<path opacity="0.7893" d="M119.082 401.766L125.003 317.498L99.0157 327.18L119.082 401.766ZM124.016 318.881L118.534 395.914L100.222 327.712L124.016 318.881Z" fill="#0E243A"/>
</g>
<g opacity="0.7612">
<path opacity="0.7612" d="M46.0539 495.824L46.1635 494.866L1.14441e-05 485.184V490.717L46.0539 495.824ZM1.09653 486.354L36.7334 493.802L1.09653 489.866V486.354Z" fill="#0E243A"/>
</g>
<g opacity="0.3186">
<path opacity="0.3186" d="M0.109592 409.959L26.5357 405.81L3.83776 368.57L0.219219 388.786L0.109592 409.959ZM25.0006 405.065L1.09645 408.789L1.09645 388.786L4.27636 371.123L25.0006 405.065Z" fill="#0E243A"/>
</g>
<g opacity="0.769">
<path opacity="0.769" d="M82.6776 485.397L130.815 482.524L108.994 444.752L82.6776 485.397ZM129.17 481.566L84.432 484.226L108.775 446.454L129.17 481.566Z" fill="#0E243A"/>
</g>
<g opacity="0.7914">
<path opacity="0.7914" d="M130.267 482.311L167.768 443.05L165.026 441.134L129.609 481.673L130.267 482.311ZM166.342 443.262L144.741 465.926L165.246 442.518L166.342 443.262Z" fill="#0E243A"/>
</g>
<g opacity="0.7235">
<path opacity="0.7235" d="M201.979 397.51L219.194 379.21L192.11 385.913L201.979 397.51ZM216.234 380.912L201.979 396.021L193.755 386.445L216.234 380.912Z" fill="#0E243A"/>
</g>
<g opacity="0.1424">
<path opacity="0.1424" d="M31.9088 127.467L4.82475 85.4392L0.219353 91.3976V103.527L31.9088 127.467ZM4.71509 87.0352L28.1806 123.424L1.09659 102.889V91.6104L4.71509 87.0352Z" fill="#0E243A"/>
</g>
<g opacity="0.3504">
<path opacity="0.3504" d="M363.606 190.669L393.102 147.151L354.943 163.218L363.606 190.669ZM390.58 149.279L363.935 188.541L356.15 163.856L390.58 149.279Z" fill="#0E243A"/>
</g>
<g opacity="0.5955">
<path opacity="0.5955" d="M355.601 164.069L392.116 148.747L391.787 147.896L347.049 159.281L355.601 164.069ZM385.865 150.237L355.601 163.005L349.461 159.494L385.865 150.237Z" fill="#0E243A"/>
</g>
<g opacity="0.8014">
<path opacity="0.8014" d="M200.773 80.6512L233.668 80.0128L224.787 70.4368L200.773 80.6512ZM231.585 79.0552L205.598 79.5872L224.567 71.5008L231.585 79.0552Z" fill="#0E243A"/>
</g>
<g opacity="0.38">
<path opacity="0.38" d="M233.011 80.5448L239.041 36.1761L224.238 70.9688L233.011 80.5448ZM237.068 43.1985L232.243 78.5233L225.225 70.9688L237.068 43.1985Z" fill="#0E243A"/>
</g>
<g opacity="0.9285">
<path opacity="0.9285" d="M176.101 264.723L169.961 237.698L167.11 251.423L176.101 264.723ZM170.07 242.166L174.127 259.829L168.316 251.104L170.07 242.166Z" fill="#0E243A"/>
</g>
<g opacity="0.9356">
<path opacity="0.9356" d="M124.894 318.455L175.662 262.276L167.658 250.359L124.126 317.923L124.894 318.455ZM174.456 262.276L128.074 313.561L167.658 252.062L174.456 262.276Z" fill="#0E243A"/>
</g>
</g>
</svg>
